<svg xmlns="http://www.w3.org/2000/svg" viewBox="0 0 280 60" fill="none">
  <!-- Hexagonal icon background -->
  <polygon points="30,2 54,16 54,44 30,58 6,44 6,16" fill="white" fill-opacity="0.15"/>
  <!-- Green petal 1 – lower-left, broad curve sweeping upward -->
  <path d="M20 40 C16 33 17 23 22 17 C24 15 26 16 26 18 C22 23 21 32 23 38 Z" fill="#6DBF3A"/>
  <!-- Green petal 2 – centre, slender vertical -->
  <path d="M30 40 C27 33 27 23 30 16 C33 23 33 33 30 40 Z" fill="#6DBF3A"/>
  <!-- Green petal 3 – upper-right, reverse curve -->
  <path d="M40 36 C44 29 43 19 38 14 C36 13 34 14 35 16 C38 20 39 29 37 35 Z" fill="#6DBF3A"/>
  <!-- Text: iMuskoka -->
  <text x="68" y="28" font-family="Poppins, system-ui, sans-serif" font-size="18" font-weight="700" fill="white">iMuskoka</text>
  <!-- Text: PROPERTIES -->
  <text x="68" y="46" font-family="Poppins, system-ui, sans-serif" font-size="11" font-weight="400" fill="white" fill-opacity="0.7" letter-spacing="2">PROPERTIES</text>
</svg>
