<svg xmlns="http://www.w3.org/2000/svg" viewBox="0 0 280 60" fill="none">
  <!-- Hexagonal icon background -->
  <polygon points="30,2 54,16 54,44 30,58 6,44 6,16" fill="#3D4F5C"/>
  <!-- Green leaf/hand shape inside hex -->
  <path d="M30 14 C22 20 18 28 20 36 C22 40 26 42 30 42 C34 42 38 40 40 36 C42 28 38 20 30 14Z" fill="#6DBF3A"/>
  <path d="M30 18 C30 18 24 26 26 34 C27 37 28.5 39 30 39" stroke="#3D4F5C" stroke-width="1.5" fill="none" stroke-linecap="round"/>
  <path d="M30 18 C30 18 36 26 34 34 C33 37 31.5 39 30 39" stroke="#3D4F5C" stroke-width="1.5" fill="none" stroke-linecap="round"/>
  <!-- Text: iMuskoka -->
  <text x="68" y="28" font-family="Poppins, system-ui, sans-serif" font-size="18" font-weight="700" fill="#3D4F5C">iMuskoka</text>
  <!-- Text: PROPERTIES -->
  <text x="68" y="46" font-family="Poppins, system-ui, sans-serif" font-size="11" font-weight="400" fill="#64748B" letter-spacing="2">PROPERTIES</text>
</svg>
